<?xml version="1.0" encoding="UTF-8"?><svg xmlns="http://www.w3.org/2000/svg" xmlns:xlink="http://www.w3.org/1999/xlink" width="100%" height="100%" viewBox="0 0 142 30" version="1.1"><g id="surface1"><path style=" stroke:none;fill-rule:nonzero;fill:rgb(0%,0%,0%);fill-opacity:1;" d="M 141.203125 20.042969 C 140.761719 20.042969 140.402344 20.398438 140.402344 20.835938 C 140.402344 21.273438 140.761719 21.625 141.203125 21.625 C 141.644531 21.625 142 21.273438 142 20.835938 C 142 20.398438 141.640625 20.042969 141.203125 20.042969 Z M 141.203125 21.5 C 140.832031 21.5 140.53125 21.203125 140.53125 20.835938 C 140.53125 20.464844 140.832031 20.167969 141.203125 20.167969 C 141.574219 20.167969 141.875 20.46875 141.875 20.835938 C 141.875 21.203125 141.574219 21.5 141.203125 21.5 Z M 141.460938 20.699219 C 141.460938 20.554688 141.359375 20.46875 141.207031 20.46875 L 140.953125 20.46875 L 140.953125 21.191406 L 141.078125 21.191406 L 141.078125 20.929688 L 141.214844 20.929688 L 141.347656 21.191406 L 141.480469 21.191406 L 141.335938 20.902344 C 141.417969 20.867188 141.46875 20.785156 141.460938 20.699219 Z M 141.203125 20.816406 L 141.078125 20.816406 L 141.078125 20.578125 L 141.203125 20.578125 C 141.285156 20.578125 141.335938 20.621094 141.335938 20.699219 C 141.335938 20.773438 141.285156 20.816406 141.203125 20.816406 Z M 45.023438 12.027344 L 45.023438 10.113281 L 42.066406 10.113281 L 42.066406 21.507812 L 45.023438 21.507812 L 45.023438 14.675781 C 45.023438 13.4375 45.824219 12.828125 47.070312 12.828125 L 48.691406 12.828125 L 48.691406 10.109375 L 47.308594 10.109375 C 46.226562 10.109375 45.28125 10.671875 45.023438 12.027344 Z M 51.464844 5.601562 C 50.453125 5.601562 49.675781 6.398438 49.675781 7.402344 C 49.675781 8.382812 50.476562 9.175781 51.464844 9.175781 C 52.453125 9.175781 53.253906 8.382812 53.253906 7.402344 C 53.253906 6.394531 52.476562 5.601562 51.464844 5.601562 Z M 49.988281 21.511719 L 52.941406 21.511719 L 52.941406 10.109375 L 49.988281 10.109375 Z M 67.007812 15.8125 C 67.007812 19.066406 64.347656 21.703125 61.070312 21.703125 C 59.8125 21.707031 58.585938 21.300781 57.585938 20.546875 L 57.585938 24.855469 L 54.632812 24.855469 L 54.632812 10.109375 L 57.585938 10.109375 L 57.585938 11.078125 C 58.585938 10.320312 59.8125 9.914062 61.070312 9.917969 C 64.347656 9.917969 67.007812 12.554688 67.007812 15.808594 Z M 64.035156 15.8125 C 64.035156 14.042969 62.589844 12.609375 60.8125 12.609375 C 59.03125 12.609375 57.585938 14.042969 57.585938 15.8125 C 57.585938 17.578125 59.03125 19.011719 60.8125 19.011719 C 62.59375 19.011719 64.035156 17.578125 64.035156 15.808594 Z M 118.335938 14.8125 L 116.613281 14.339844 C 115.480469 14.042969 115.039062 13.699219 115.039062 13.105469 C 115.039062 12.527344 115.660156 12.121094 116.546875 12.121094 C 117.394531 12.121094 118.054688 12.667969 118.054688 13.375 L 118.054688 13.4375 L 120.777344 13.4375 L 120.777344 13.375 C 120.777344 11.304688 119.078125 9.914062 116.546875 9.914062 C 114.042969 9.914062 112.222656 11.300781 112.222656 13.21875 C 112.222656 14.707031 113.214844 15.828125 114.949219 16.292969 L 116.601562 16.742188 C 117.855469 17.085938 118.320312 17.46875 118.320312 18.152344 C 118.320312 18.875 117.648438 19.359375 116.644531 19.359375 C 115.601562 19.359375 114.894531 18.703125 114.894531 17.730469 L 114.894531 17.664062 L 112.007812 17.664062 L 112.007812 17.730469 C 112.007812 20.070312 113.902344 21.703125 116.621094 21.703125 C 119.238281 21.703125 121.140625 20.105469 121.140625 17.910156 C 121.136719 16.832031 120.652344 15.421875 118.335938 14.808594 Z M 77.484375 10.109375 L 80.4375 10.109375 L 80.4375 21.507812 L 77.484375 21.507812 L 77.484375 20.542969 C 76.484375 21.296875 75.257812 21.703125 74 21.699219 C 70.722656 21.699219 68.0625 19.0625 68.0625 15.808594 C 68.0625 12.550781 70.722656 9.914062 74 9.914062 C 75.257812 9.910156 76.484375 10.316406 77.484375 11.070312 L 77.484375 10.105469 Z M 77.484375 15.808594 C 77.484375 14.042969 76.042969 12.609375 74.261719 12.609375 C 72.480469 12.609375 71.035156 14.039062 71.035156 15.808594 C 71.035156 17.574219 72.476562 19.007812 74.257812 19.007812 C 76.039062 19.011719 77.484375 17.578125 77.484375 15.808594 Z M 91.101562 6.054688 L 94.054688 6.054688 L 94.054688 21.507812 L 91.101562 21.507812 L 91.101562 20.542969 C 90.097656 21.300781 88.875 21.707031 87.617188 21.699219 C 84.335938 21.699219 81.679688 19.0625 81.679688 15.808594 C 81.679688 12.554688 84.335938 9.917969 87.617188 9.917969 C 88.875 9.910156 90.097656 10.316406 91.101562 11.074219 Z M 91.101562 15.808594 C 91.101562 14.042969 89.65625 12.609375 87.875 12.609375 C 86.09375 12.609375 84.652344 14.042969 84.652344 15.808594 C 84.652344 17.578125 86.09375 19.007812 87.875 19.007812 C 89.65625 19.007812 91.101562 17.574219 91.101562 15.808594 Z M 107.765625 21.507812 L 110.71875 21.507812 L 110.71875 10.109375 L 107.765625 10.109375 Z M 109.242188 5.601562 C 108.230469 5.601562 107.453125 6.394531 107.453125 7.398438 C 107.453125 8.378906 108.253906 9.175781 109.242188 9.175781 C 110.230469 9.175781 111.03125 8.378906 111.03125 7.398438 C 111.03125 6.394531 110.253906 5.601562 109.242188 5.601562 Z M 133.902344 15.808594 C 133.902344 19.0625 131.242188 21.699219 127.964844 21.699219 C 124.6875 21.699219 122.027344 19.0625 122.027344 15.808594 C 122.027344 12.554688 124.6875 9.917969 127.964844 9.917969 C 131.242188 9.917969 133.902344 12.554688 133.902344 15.808594 Z M 131.191406 15.808594 C 131.191406 14.042969 129.746094 12.609375 127.964844 12.609375 C 126.183594 12.609375 124.742188 14.042969 124.742188 15.808594 C 124.742188 17.578125 126.183594 19.007812 127.964844 19.007812 C 129.746094 19.007812 131.1875 17.574219 131.191406 15.808594 Z M 43.511719 6.054688 L 32.183594 6.054688 L 32.183594 8.667969 L 36.378906 8.667969 L 36.378906 21.507812 L 39.320312 21.507812 L 39.320312 8.667969 L 43.515625 8.667969 L 43.515625 6.054688 Z M 100.800781 18.386719 L 98.175781 10.109375 L 95.074219 10.109375 L 99.011719 21.507812 L 102.566406 21.507812 L 106.53125 10.109375 L 103.429688 10.109375 Z M 138.226562 12.027344 L 138.226562 10.113281 L 135.269531 10.113281 L 135.269531 21.507812 L 138.226562 21.507812 L 138.226562 14.675781 C 138.226562 13.4375 139.027344 12.828125 140.273438 12.828125 L 141.894531 12.828125 L 141.894531 10.109375 L 140.511719 10.109375 C 139.429688 10.109375 138.488281 10.671875 138.226562 12.027344 Z M 138.226562 12.027344 "/><path style=" stroke:none;fill-rule:nonzero;fill:rgb(20.392157%,87.843138%,63.137257%);fill-opacity:1;" d="M 30.207031 15 C 30.207031 23.277344 23.445312 29.988281 15.101562 29.988281 C 6.761719 29.988281 0 23.277344 0 15 C 0 6.722656 6.761719 0.0117188 15.101562 0.0117188 C 23.445312 0.0117188 30.207031 6.722656 30.207031 15 Z M 30.207031 15 "/><path style=" stroke:none;fill-rule:nonzero;fill:rgb(0%,0%,0%);fill-opacity:1;" d="M 24.433594 12.074219 L 26.253906 10.109375 L 22.214844 10.109375 C 17.925781 7.214844 12.292969 7.214844 8.007812 10.109375 L 3.957031 10.109375 L 5.777344 12.074219 C 4.300781 13.410156 3.65625 15.425781 4.089844 17.359375 C 4.523438 19.292969 5.964844 20.847656 7.871094 21.4375 C 9.773438 22.03125 11.851562 21.5625 13.316406 20.214844 L 15.101562 22.144531 L 16.890625 20.21875 C 19.15625 22.289062 22.679688 22.140625 24.761719 19.890625 C 26.847656 17.640625 26.699219 14.144531 24.433594 12.074219 Z M 9.53125 19.902344 C 7.453125 19.902344 5.765625 18.230469 5.765625 16.164062 C 5.765625 14.097656 7.453125 12.425781 9.53125 12.425781 C 11.613281 12.425781 13.300781 14.097656 13.300781 16.164062 C 13.300781 18.230469 11.613281 19.902344 9.53125 19.902344 Z M 15.105469 16.054688 C 15.105469 13.589844 13.300781 11.476562 10.921875 10.574219 C 13.597656 9.46875 16.609375 9.46875 19.289062 10.574219 C 16.910156 11.480469 15.105469 13.589844 15.105469 16.054688 Z M 20.675781 19.902344 C 18.59375 19.902344 16.90625 18.230469 16.90625 16.164062 C 16.90625 14.097656 18.59375 12.425781 20.675781 12.425781 C 22.757812 12.425781 24.445312 14.097656 24.445312 16.164062 C 24.445312 18.230469 22.757812 19.902344 20.675781 19.902344 Z M 20.675781 14.199219 C 19.582031 14.199219 18.699219 15.074219 18.699219 16.160156 C 18.695312 17.242188 19.582031 18.121094 20.671875 18.121094 C 21.765625 18.121094 22.648438 17.242188 22.648438 16.160156 C 22.648438 15.078125 21.765625 14.199219 20.675781 14.199219 Z M 11.507812 16.164062 C 11.507812 17.246094 10.625 18.125 9.53125 18.125 C 8.441406 18.125 7.554688 17.246094 7.554688 16.164062 C 7.554688 15.078125 8.441406 14.199219 9.53125 14.199219 C 10.625 14.199219 11.507812 15.078125 11.507812 16.164062 Z M 11.507812 16.164062 "/></g></svg>